<mxfile host="app.diagrams.net" modified="2021-12-16T12:35:18.309Z" agent="5.0 (Windows NT 10.0; WOW64) AppleWebKit/537.36 (KHTML, like Gecko) Chrome/70.0.3538.25 Safari/537.36 Core/1.70.3880.400 QQBrowser/10.8.4554.400" etag="iz5aKS-vd2oL5p5IeqRa" version="15.9.6" type="github">
  <diagram id="KS5yG7DcnUoSYNIJ4l9c" name="Page-1">
    <mxGraphModel dx="1695" dy="461" grid="1" gridSize="10" guides="1" tooltips="1" connect="1" arrows="1" fold="1" page="1" pageScale="1" pageWidth="827" pageHeight="1169" math="0" shadow="0">
      <root>
        <mxCell id="0" />
        <mxCell id="1" parent="0" />
        <mxCell id="zZv2v4MCvBIiyBHbk9Cu-49" value="" style="shape=ext;rounded=1;html=1;whiteSpace=wrap;dashed=1;dashPattern=1 4;" parent="1" vertex="1">
          <mxGeometry x="-330" y="60" width="950" height="400" as="geometry" />
        </mxCell>
        <mxCell id="zZv2v4MCvBIiyBHbk9Cu-37" value="" style="shape=ext;rounded=1;html=1;whiteSpace=wrap;dashed=1;dashPattern=1 4;" parent="1" vertex="1">
          <mxGeometry x="219" y="470" width="401" height="380" as="geometry" />
        </mxCell>
        <mxCell id="zZv2v4MCvBIiyBHbk9Cu-25" value="" style="shape=ext;rounded=1;html=1;whiteSpace=wrap;dashed=1;dashPattern=1 4;" parent="1" vertex="1">
          <mxGeometry x="-330" y="470" width="530" height="380" as="geometry" />
        </mxCell>
        <mxCell id="zZv2v4MCvBIiyBHbk9Cu-1" value="&lt;font style=&quot;font-size: 24px&quot;&gt;daily precipitation&lt;/font&gt;" style="shape=parallelogram;perimeter=parallelogramPerimeter;whiteSpace=wrap;html=1;fixedSize=1;" parent="1" vertex="1">
          <mxGeometry x="-295" y="70" width="170" height="50" as="geometry" />
        </mxCell>
        <mxCell id="zZv2v4MCvBIiyBHbk9Cu-2" value="&lt;font style=&quot;font-size: 24px&quot;&gt;monthly runoff&lt;/font&gt;" style="shape=parallelogram;perimeter=parallelogramPerimeter;whiteSpace=wrap;html=1;fixedSize=1;" parent="1" vertex="1">
          <mxGeometry x="127.5" y="70" width="185" height="50" as="geometry" />
        </mxCell>
        <mxCell id="zZv2v4MCvBIiyBHbk9Cu-3" value="" style="endArrow=classic;html=1;exitX=0.5;exitY=1;exitDx=0;exitDy=0;entryX=0.5;entryY=0;entryDx=0;entryDy=0;" parent="1" source="zZv2v4MCvBIiyBHbk9Cu-1" target="zZv2v4MCvBIiyBHbk9Cu-5" edge="1">
          <mxGeometry width="50" height="50" relative="1" as="geometry">
            <mxPoint x="25" y="410" as="sourcePoint" />
            <mxPoint x="-95" y="200" as="targetPoint" />
          </mxGeometry>
        </mxCell>
        <mxCell id="zZv2v4MCvBIiyBHbk9Cu-4" value="" style="endArrow=classic;html=1;exitX=0.5;exitY=1;exitDx=0;exitDy=0;entryX=0.5;entryY=0;entryDx=0;entryDy=0;" parent="1" source="zZv2v4MCvBIiyBHbk9Cu-2" target="zZv2v4MCvBIiyBHbk9Cu-6" edge="1">
          <mxGeometry width="50" height="50" relative="1" as="geometry">
            <mxPoint x="240" y="410" as="sourcePoint" />
            <mxPoint x="270" y="200" as="targetPoint" />
          </mxGeometry>
        </mxCell>
        <mxCell id="zZv2v4MCvBIiyBHbk9Cu-5" value="&lt;font style=&quot;font-size: 24px&quot;&gt;unified temporal resolution&lt;/font&gt;" style="rounded=1;whiteSpace=wrap;html=1;" parent="1" vertex="1">
          <mxGeometry x="-305" y="150" width="190" height="60" as="geometry" />
        </mxCell>
        <mxCell id="zZv2v4MCvBIiyBHbk9Cu-6" value="&lt;font style=&quot;font-size: 24px&quot;&gt;normalization&lt;/font&gt;" style="rounded=1;whiteSpace=wrap;html=1;" parent="1" vertex="1">
          <mxGeometry x="80" y="220" width="280" height="60" as="geometry" />
        </mxCell>
        <mxCell id="zZv2v4MCvBIiyBHbk9Cu-8" value="&lt;font style=&quot;font-size: 24px&quot;&gt;restructure data for fusion-model&lt;/font&gt;" style="rounded=1;whiteSpace=wrap;html=1;" parent="1" vertex="1">
          <mxGeometry x="80" y="300" width="280" height="60" as="geometry" />
        </mxCell>
        <mxCell id="zZv2v4MCvBIiyBHbk9Cu-9" value="" style="endArrow=classic;html=1;exitX=0.5;exitY=1;exitDx=0;exitDy=0;entryX=0.5;entryY=0;entryDx=0;entryDy=0;" parent="1" source="zZv2v4MCvBIiyBHbk9Cu-6" target="zZv2v4MCvBIiyBHbk9Cu-8" edge="1">
          <mxGeometry width="50" height="50" relative="1" as="geometry">
            <mxPoint x="240" y="410" as="sourcePoint" />
            <mxPoint x="290" y="360" as="targetPoint" />
          </mxGeometry>
        </mxCell>
        <mxCell id="zZv2v4MCvBIiyBHbk9Cu-10" value="&lt;font style=&quot;font-size: 24px&quot;&gt;split training data and test data&lt;/font&gt;" style="rounded=1;whiteSpace=wrap;html=1;" parent="1" vertex="1">
          <mxGeometry x="80" y="380" width="280" height="60" as="geometry" />
        </mxCell>
        <mxCell id="zZv2v4MCvBIiyBHbk9Cu-11" value="" style="endArrow=classic;html=1;exitX=0.5;exitY=1;exitDx=0;exitDy=0;entryX=0.5;entryY=0;entryDx=0;entryDy=0;" parent="1" source="zZv2v4MCvBIiyBHbk9Cu-8" target="zZv2v4MCvBIiyBHbk9Cu-10" edge="1">
          <mxGeometry width="50" height="50" relative="1" as="geometry">
            <mxPoint x="240" y="340" as="sourcePoint" />
            <mxPoint x="290" y="290" as="targetPoint" />
          </mxGeometry>
        </mxCell>
        <mxCell id="zZv2v4MCvBIiyBHbk9Cu-12" value="" style="endArrow=classic;html=1;exitX=1;exitY=0.5;exitDx=0;exitDy=0;entryX=0.5;entryY=0;entryDx=0;entryDy=0;" parent="1" source="zZv2v4MCvBIiyBHbk9Cu-10" target="zZv2v4MCvBIiyBHbk9Cu-14" edge="1">
          <mxGeometry width="50" height="50" relative="1" as="geometry">
            <mxPoint x="240" y="340" as="sourcePoint" />
            <mxPoint x="419" y="541.98" as="targetPoint" />
            <Array as="points">
              <mxPoint x="460" y="410" />
            </Array>
          </mxGeometry>
        </mxCell>
        <mxCell id="zZv2v4MCvBIiyBHbk9Cu-13" value="" style="endArrow=classic;html=1;exitX=0;exitY=0.5;exitDx=0;exitDy=0;entryX=0.5;entryY=0;entryDx=0;entryDy=0;" parent="1" source="zZv2v4MCvBIiyBHbk9Cu-10" target="zZv2v4MCvBIiyBHbk9Cu-15" edge="1">
          <mxGeometry width="50" height="50" relative="1" as="geometry">
            <mxPoint x="178" y="460" as="sourcePoint" />
            <mxPoint x="238" y="500" as="targetPoint" />
            <Array as="points">
              <mxPoint x="-200" y="410" />
            </Array>
          </mxGeometry>
        </mxCell>
        <mxCell id="zZv2v4MCvBIiyBHbk9Cu-14" value="&lt;font style=&quot;font-size: 24px&quot;&gt;test data&lt;/font&gt;" style="shape=parallelogram;perimeter=parallelogramPerimeter;whiteSpace=wrap;html=1;fixedSize=1;" parent="1" vertex="1">
          <mxGeometry x="375" y="510" width="170" height="60" as="geometry" />
        </mxCell>
        <mxCell id="zZv2v4MCvBIiyBHbk9Cu-15" value="&lt;font style=&quot;font-size: 24px&quot;&gt;training data&lt;/font&gt;" style="shape=parallelogram;perimeter=parallelogramPerimeter;whiteSpace=wrap;html=1;fixedSize=1;" parent="1" vertex="1">
          <mxGeometry x="-260" y="480" width="120" height="60" as="geometry" />
        </mxCell>
        <mxCell id="zZv2v4MCvBIiyBHbk9Cu-16" value="&lt;font style=&quot;font-size: 24px&quot;&gt;classifier&lt;/font&gt;" style="shape=parallelogram;perimeter=parallelogramPerimeter;whiteSpace=wrap;html=1;fixedSize=1;" parent="1" vertex="1">
          <mxGeometry x="-260" y="800" width="120" height="40" as="geometry" />
        </mxCell>
        <mxCell id="zZv2v4MCvBIiyBHbk9Cu-17" value="" style="endArrow=classic;html=1;exitX=0.5;exitY=0;exitDx=0;exitDy=0;entryX=0.5;entryY=1;entryDx=0;entryDy=0;" parent="1" source="zZv2v4MCvBIiyBHbk9Cu-16" target="zZv2v4MCvBIiyBHbk9Cu-20" edge="1">
          <mxGeometry width="50" height="50" relative="1" as="geometry">
            <mxPoint x="-32" y="730" as="sourcePoint" />
            <mxPoint x="158" y="630" as="targetPoint" />
          </mxGeometry>
        </mxCell>
        <mxCell id="zZv2v4MCvBIiyBHbk9Cu-18" value="&lt;font style=&quot;font-size: 24px&quot;&gt;training neural network&lt;/font&gt;" style="rounded=1;whiteSpace=wrap;html=1;" parent="1" vertex="1">
          <mxGeometry x="-290" y="560" width="180" height="60" as="geometry" />
        </mxCell>
        <mxCell id="zZv2v4MCvBIiyBHbk9Cu-19" value="" style="endArrow=classic;html=1;exitX=0.5;exitY=1;exitDx=0;exitDy=0;entryX=0.5;entryY=0;entryDx=0;entryDy=0;" parent="1" source="zZv2v4MCvBIiyBHbk9Cu-15" target="zZv2v4MCvBIiyBHbk9Cu-18" edge="1">
          <mxGeometry width="50" height="50" relative="1" as="geometry">
            <mxPoint x="98" y="550" as="sourcePoint" />
            <mxPoint x="68" y="650" as="targetPoint" />
          </mxGeometry>
        </mxCell>
        <mxCell id="zZv2v4MCvBIiyBHbk9Cu-20" value="&lt;font style=&quot;font-size: 24px&quot;&gt;embedding prototypes&lt;/font&gt;" style="rounded=1;whiteSpace=wrap;html=1;" parent="1" vertex="1">
          <mxGeometry x="-260" y="710" width="120" height="60" as="geometry" />
        </mxCell>
        <mxCell id="zZv2v4MCvBIiyBHbk9Cu-21" value="" style="endArrow=classic;html=1;exitX=0.5;exitY=1;exitDx=0;exitDy=0;entryX=0.5;entryY=0;entryDx=0;entryDy=0;" parent="1" source="zZv2v4MCvBIiyBHbk9Cu-18" target="zZv2v4MCvBIiyBHbk9Cu-20" edge="1">
          <mxGeometry width="50" height="50" relative="1" as="geometry">
            <mxPoint x="98" y="620" as="sourcePoint" />
            <mxPoint x="148" y="570" as="targetPoint" />
          </mxGeometry>
        </mxCell>
        <mxCell id="zZv2v4MCvBIiyBHbk9Cu-27" value="&lt;font style=&quot;font-size: 24px&quot;&gt;modify neural network&lt;/font&gt;" style="rounded=1;whiteSpace=wrap;html=1;" parent="1" vertex="1">
          <mxGeometry x="-90" y="560" width="280" height="60" as="geometry" />
        </mxCell>
        <mxCell id="zZv2v4MCvBIiyBHbk9Cu-28" value="" style="endArrow=classic;html=1;exitX=0;exitY=0.5;exitDx=0;exitDy=0;entryX=1;entryY=0.5;entryDx=0;entryDy=0;" parent="1" source="zZv2v4MCvBIiyBHbk9Cu-27" target="zZv2v4MCvBIiyBHbk9Cu-18" edge="1">
          <mxGeometry width="50" height="50" relative="1" as="geometry">
            <mxPoint x="30" y="550" as="sourcePoint" />
            <mxPoint x="80" y="500" as="targetPoint" />
          </mxGeometry>
        </mxCell>
        <mxCell id="zZv2v4MCvBIiyBHbk9Cu-32" value="&lt;font style=&quot;font-size: 24px&quot;&gt;&lt;b&gt;Train epoch&lt;/b&gt;&lt;/font&gt;" style="text;html=1;align=center;verticalAlign=middle;resizable=0;points=[];autosize=1;" parent="1" vertex="1">
          <mxGeometry x="-70" y="510" width="150" height="20" as="geometry" />
        </mxCell>
        <mxCell id="zZv2v4MCvBIiyBHbk9Cu-33" value="&lt;font style=&quot;font-size: 24px&quot;&gt;trained neural network&lt;/font&gt;" style="rounded=1;whiteSpace=wrap;html=1;" parent="1" vertex="1">
          <mxGeometry x="335" y="610" width="250" height="60" as="geometry" />
        </mxCell>
        <mxCell id="zZv2v4MCvBIiyBHbk9Cu-34" value="" style="endArrow=classic;html=1;exitX=0.5;exitY=1;exitDx=0;exitDy=0;entryX=0.5;entryY=0;entryDx=0;entryDy=0;" parent="1" source="zZv2v4MCvBIiyBHbk9Cu-14" target="zZv2v4MCvBIiyBHbk9Cu-33" edge="1">
          <mxGeometry width="50" height="50" relative="1" as="geometry">
            <mxPoint x="-40" y="560" as="sourcePoint" />
            <mxPoint x="10" y="510" as="targetPoint" />
          </mxGeometry>
        </mxCell>
        <mxCell id="zZv2v4MCvBIiyBHbk9Cu-38" value="&lt;font style=&quot;font-size: 24px&quot;&gt;evaluate results&lt;/font&gt;" style="rounded=1;whiteSpace=wrap;html=1;" parent="1" vertex="1">
          <mxGeometry x="362.5" y="710" width="195" height="60" as="geometry" />
        </mxCell>
        <mxCell id="zZv2v4MCvBIiyBHbk9Cu-39" value="" style="endArrow=classic;html=1;exitX=0.5;exitY=1;exitDx=0;exitDy=0;entryX=0.5;entryY=0;entryDx=0;entryDy=0;" parent="1" source="zZv2v4MCvBIiyBHbk9Cu-33" target="zZv2v4MCvBIiyBHbk9Cu-38" edge="1">
          <mxGeometry width="50" height="50" relative="1" as="geometry">
            <mxPoint x="-40" y="560" as="sourcePoint" />
            <mxPoint x="10" y="510" as="targetPoint" />
          </mxGeometry>
        </mxCell>
        <mxCell id="zZv2v4MCvBIiyBHbk9Cu-41" value="" style="endArrow=classic;html=1;exitX=0.5;exitY=1;exitDx=0;exitDy=0;entryX=0;entryY=0.5;entryDx=0;entryDy=0;" parent="1" source="zZv2v4MCvBIiyBHbk9Cu-5" target="zZv2v4MCvBIiyBHbk9Cu-6" edge="1">
          <mxGeometry width="50" height="50" relative="1" as="geometry">
            <mxPoint x="-40" y="460" as="sourcePoint" />
            <mxPoint x="10" y="410" as="targetPoint" />
            <Array as="points">
              <mxPoint x="-210" y="250" />
            </Array>
          </mxGeometry>
        </mxCell>
        <mxCell id="zZv2v4MCvBIiyBHbk9Cu-42" value="&lt;font style=&quot;font-size: 24px&quot;&gt;&lt;b&gt;Test epoch&lt;/b&gt;&lt;/font&gt;" style="text;html=1;align=center;verticalAlign=middle;resizable=0;points=[];autosize=1;" parent="1" vertex="1">
          <mxGeometry x="250" y="510" width="140" height="20" as="geometry" />
        </mxCell>
        <mxCell id="zZv2v4MCvBIiyBHbk9Cu-44" value="&lt;font style=&quot;font-size: 24px&quot;&gt;matches the corresponding embedded space&lt;/font&gt;" style="rhombus;whiteSpace=wrap;html=1;" parent="1" vertex="1">
          <mxGeometry x="-95" y="675" width="290" height="130" as="geometry" />
        </mxCell>
        <mxCell id="zZv2v4MCvBIiyBHbk9Cu-45" value="" style="endArrow=classic;html=1;exitX=1;exitY=0.5;exitDx=0;exitDy=0;entryX=0;entryY=0.5;entryDx=0;entryDy=0;" parent="1" source="zZv2v4MCvBIiyBHbk9Cu-20" target="zZv2v4MCvBIiyBHbk9Cu-44" edge="1">
          <mxGeometry width="50" height="50" relative="1" as="geometry">
            <mxPoint x="-40" y="560" as="sourcePoint" />
            <mxPoint x="10" y="510" as="targetPoint" />
          </mxGeometry>
        </mxCell>
        <mxCell id="zZv2v4MCvBIiyBHbk9Cu-46" value="&lt;font style=&quot;font-size: 18px&quot;&gt;&lt;b&gt;No&lt;/b&gt;&lt;/font&gt;" style="endArrow=classic;html=1;exitX=0.5;exitY=0;exitDx=0;exitDy=0;entryX=0.5;entryY=1;entryDx=0;entryDy=0;" parent="1" source="zZv2v4MCvBIiyBHbk9Cu-44" target="zZv2v4MCvBIiyBHbk9Cu-27" edge="1">
          <mxGeometry width="50" height="50" relative="1" as="geometry">
            <mxPoint x="-40" y="560" as="sourcePoint" />
            <mxPoint x="10" y="510" as="targetPoint" />
          </mxGeometry>
        </mxCell>
        <mxCell id="zZv2v4MCvBIiyBHbk9Cu-47" value="" style="endArrow=classic;html=1;exitX=1;exitY=0.5;exitDx=0;exitDy=0;entryX=0;entryY=0.5;entryDx=0;entryDy=0;" parent="1" source="zZv2v4MCvBIiyBHbk9Cu-44" target="zZv2v4MCvBIiyBHbk9Cu-33" edge="1">
          <mxGeometry width="50" height="50" relative="1" as="geometry">
            <mxPoint x="-40" y="560" as="sourcePoint" />
            <mxPoint x="10" y="510" as="targetPoint" />
            <Array as="points">
              <mxPoint x="210" y="740" />
              <mxPoint x="210" y="640" />
            </Array>
          </mxGeometry>
        </mxCell>
        <mxCell id="zZv2v4MCvBIiyBHbk9Cu-48" value="&lt;font style=&quot;font-size: 18px&quot;&gt;&lt;b&gt;Yes&lt;/b&gt;&lt;/font&gt;" style="edgeLabel;html=1;align=center;verticalAlign=middle;resizable=0;points=[];" parent="zZv2v4MCvBIiyBHbk9Cu-47" vertex="1" connectable="0">
          <mxGeometry x="-0.1719" y="1" relative="1" as="geometry">
            <mxPoint y="34.33" as="offset" />
          </mxGeometry>
        </mxCell>
        <mxCell id="zZv2v4MCvBIiyBHbk9Cu-50" value="&lt;font style=&quot;font-size: 24px&quot;&gt;&lt;b&gt;Data preprocessing&lt;/b&gt;&lt;/font&gt;" style="text;html=1;align=center;verticalAlign=middle;resizable=0;points=[];autosize=1;" parent="1" vertex="1">
          <mxGeometry x="-115" y="85" width="240" height="20" as="geometry" />
        </mxCell>
      </root>
    </mxGraphModel>
  </diagram>
</mxfile>
